<svg xmlns="http://www.w3.org/2000/svg" fill="none" viewBox="0 0 32 32"
     id="Tiktok-Icon--Streamline-Svg-Logos" height="32" width="32">
  <desc>
    Tiktok Icon Streamline Icon: https://streamlinehq.com
  </desc>
  <path fill="#ff004f"
        d="M22.68573333333333 11.643933333333333c2.0231666666666666 1.4455 4.5016 2.2959666666666667 7.178466666666666 2.2959666666666667V8.7915c-0.5065999999999999 0.00009999999999999999 -1.0118999999999998 -0.0527 -1.5075333333333332 -0.15766666666666665v4.052566666666666c-2.676633333333333 0 -5.154766666666666 -0.8504999999999999 -7.1784333333333326 -2.2958666666666665v10.5064c0 5.255866666666666 -4.2629 9.516266666666667 -9.5211 9.516266666666667 -1.9619666666666666 0 -3.7855333333333334 -0.5928333333333333 -5.300366666666666 -1.6095666666666668 1.7289333333333332 1.7668666666666666 4.140066666666666 2.862966666666667 6.807566666666666 2.862966666666667 5.258533333333333 0 9.521633333333334 -4.2604 9.521633333333334 -9.516433333333332V11.643933333333333h-0.00023333333333333333Zm1.8597000000000001 -5.1941c-1.0339333333333331 -1.129 -1.7127999999999999 -2.588033333333333 -1.8597000000000001 -4.2010499999999995V1.5865899999999997h-1.4285999999999999c0.3596 2.050143333333333 1.5861333333333332 3.8016433333333333 3.2883 4.863243333333333ZM9.682599999999999 24.770433333333333c-0.5776666666666667 -0.7570333333333333 -0.8898666666666666 -1.6831333333333334 -0.8884666666666666 -2.635333333333333 0 -2.403833333333333 1.9498333333333333 -4.352866666666666 4.355366666666667 -4.352866666666666 0.4483 -0.00013333333333333334 0.8939333333333332 0.06849999999999999 1.3211666666666666 0.20396666666666666V12.722733333333332c-0.49929999999999997 -0.06839999999999999 -1.0031999999999999 -0.09743333333333333 -1.5068666666666666 -0.08676666666666666v4.096833333333333c-0.42756666666666665 -0.13549999999999998 -0.8734 -0.2043333333333333 -1.3218333333333332 -0.2039 -2.405533333333333 0 -4.355233333333333 1.9488333333333332 -4.355233333333333 4.353 0 1.6999 0.9745666666666667 3.1715999999999998 2.3958666666666666 3.888533333333333Z"
        stroke-width="0.3333"></path>
  <path fill="#000000"
        d="M21.17813333333333 10.390433333333332c2.0237 1.4453666666666667 4.501833333333333 2.2958333333333334 7.178466666666666 2.2958333333333334V8.633733333333332c-1.4941 -0.31806666666666666 -2.8167666666666666 -1.0984666666666665 -3.811233333333333 -2.1839 -1.7022666666666666 -1.0616999999999999 -2.9286999999999996 -2.8132 -3.2883 -4.863243333333333H17.504566666666665V22.14993333333333c-0.008499999999999999 2.3972666666666664 -1.9549666666666665 4.3383666666666665 -4.355366666666667 4.3383666666666665 -1.4144999999999999 0 -2.6711333333333336 -0.6739333333333333 -3.4669999999999996 -1.7178666666666667 -1.4211666666666665 -0.7169333333333332 -2.3957666666666664 -2.1887333333333334 -2.3957666666666664 -3.8884333333333334 0 -2.4039333333333333 1.9497 -4.353 4.355233333333333 -4.353 0.4609 0 0.9051333333333332 0.07173333333333333 1.3218333333333332 0.2039V12.636066666666666c-5.1658333333333335 0.10666666666666666 -9.320433333333334 4.325433333333333 -9.320433333333334 9.513966666666665 0 2.5900666666666665 1.0346 4.9380999999999995 2.713733333333333 6.653699999999999 1.5148333333333333 1.0166333333333333 3.3384 1.6095666666666668 5.300366666666666 1.6095666666666668 5.258333333333333 0 9.5211 -4.2606 9.5211 -9.516366666666666l-0.00013333333333333334 -10.506499999999999Z"
        stroke-width="0.3333"></path>
  <path fill="#00f2ea"
        d="M28.356666666666662 8.633799999999999v-1.0957666666666666c-1.3472666666666666 0.002033333333333333 -2.6681333333333335 -0.3751 -3.8112 -1.0882666666666667 1.0118999999999998 1.1073 2.344333333333333 1.8707666666666667 3.8112 2.1840333333333333ZM21.257166666666667 1.5866466666666668c-0.0343 -0.19593 -0.06066666666666666 -0.39314666666666664 -0.07893333333333333 -0.5911166666666666V0.3333333333333333H15.997033333333334v20.563566666666667c-0.008299999999999998 2.396933333333333 -1.9546666666666666 4.338033333333333 -4.355266666666666 4.338033333333333 -0.7047666666666667 0 -1.3701999999999999 -0.16720000000000002 -1.9594999999999998 -0.4643333333333333 0.7958666666666666 1.0438333333333332 2.0525333333333333 1.7176333333333331 3.467033333333333 1.7176333333333331 2.4001666666666663 0 4.346966666666667 -1.9408666666666667 4.355333333333333 -4.338133333333333V1.5866466666666668h3.752533333333333ZM12.963799999999999 12.636099999999999v-1.1665333333333332c-0.4329333333333333 -0.05913333333333333 -0.8694333333333333 -0.0888 -1.3064333333333331 -0.08859999999999998 -5.258766666666666 0 -9.521623333333332 4.2604999999999995 -9.521623333333332 9.515933333333333 0 3.294833333333333 1.6753899999999997 6.1986 4.221256666666666 7.906666666666666 -1.6791333333333331 -1.7154999999999998 -2.713733333333333 -4.063599999999999 -2.713733333333333 -6.653566666666666 0 -5.188433333333333 4.154466666666666 -9.4072 9.320533333333334 -9.5139Z"
        stroke-width="0.3333"></path>
</svg>